/* XPM */
static char *_5fd5e4de25f4cf59d35bc6a7a9467f0[] = {
/* columns rows colors chars-per-pixel */
"16 16 107 2 ",
"   c #180463",
".  c #180464",
"X  c #1A0565",
"o  c #1B0666",
"O  c #1D0767",
"+  c #1E0769",
"@  c #1F0869",
"#  c #1F086A",
"$  c #220A6C",
"%  c #230B6D",
"&  c #250C6F",
"*  c #260C70",
"=  c #280D71",
"-  c #290E73",
";  c #2A0F73",
":  c #2B0E75",
">  c #2B1075",
",  c #2C1075",
"<  c #2C1076",
"1  c #2D1176",
"2  c #2E1277",
"3  c #301279",
"4  c #30117A",
"5  c #31137A",
"6  c #33157C",
"7  c #34147D",
"8  c #34157D",
"9  c #35167D",
"0  c #36177F",
"q  c #371F7B",
"w  c #381F7C",
"e  c #381880",
"r  c #391881",
"t  c #3B1983",
"y  c #3C1983",
"u  c #3D1A85",
"i  c #3E1B86",
"p  c #401D87",
"a  c #48138A",
"s  c #49148B",
"d  c #48158B",
"f  c #411D88",
"g  c #431E8A",
"h  c #47278B",
"j  c #46208D",
"k  c #47218E",
"l  c #49228F",
"z  c #4C2B8E",
"x  c #4E348D",
"c  c #4A2390",
"v  c #4B2391",
"b  c #4C2492",
"n  c #4E2494",
"m  c #4F2694",
"M  c #4E2A92",
"N  c #512797",
"B  c #522997",
"V  c #532998",
"C  c #542999",
"Z  c #572B9C",
"A  c #5B2D9F",
"S  c #523491",
"D  c #5E32A1",
"F  c #6030A4",
"G  c #6130A5",
"H  c #6231A6",
"J  c #6331A7",
"K  c #633FA1",
"L  c #653AA5",
"P  c #6432A8",
"I  c #6532A9",
"U  c #6734AB",
"Y  c #6A37AD",
"T  c #6C38AE",
"R  c #6D38AF",
"E  c #6E39B0",
"W  c #6F3AB1",
"Q  c #703BB2",
"!  c #723CB4",
"~  c #733CB4",
"^  c #733CB5",
"/  c #743DB5",
"(  c #5C4197",
")  c #6F42AD",
"_  c #705CA2",
"`  c #7759AB",
"'  c #7E5FB1",
"]  c #8D72BA",
"[  c #9078BC",
"{  c #9178BC",
"}  c #A58BCB",
"|  c #A394C5",
" . c #AD98CF",
".. c #AD94D1",
"X. c #B69FD5",
"o. c #B6A0D5",
"O. c #B7A1D6",
"+. c #B7A8D2",
"@. c #C7BFDA",
"#. c #D6CEE5",
"$. c #DAD2E9",
"%. c #DFD8EC",
"&. c #E2DBEE",
"*. c #E6E2F0",
"=. c #F3F1F7",
"-. c #F4F2F8",
";. c None",
/* pixels */
";.;.;.;.;.;.;.;.;.;.;.;.;.;.;.;.",
";.;.;.;.;.;.;.;.;.;.;.;.;.;.;.;.",
";.;.;.;.s a ;.! ~ ~ / ;.;.;.;.;.",
";.;.;.;.s a ;.T R E E Q Q ;.;.;.",
";.;.;.;.;.;.F G J J U U Y ;.;.;.",
";.s s ;.Z Z L } o.X.X...) J ;.;.",
";.s s s m m ' $.%.%.&. .D A ;.;.",
";.s s s j l ` [ [ ] K B V V C ;.",
";.;.;.u u z #.-.*.+.M j v b b ;.",
";.;.8 0 7 ( =.| S h i p p g ;.;.",
";.;.1 ; ; _ @.x 4 8 0 e e e ;.;.",
";.;.;.& & w w * > 1 1 3 8 8 ;.;.",
";.;.;.;.+ + # $ % & * = ; ;.;.;.",
";.;.;.;.;.  o o o O # ;.;.;.;.;.",
";.;.;.;.;.;.;.;.;.;.;.;.;.;.;.;.",
";.;.;.;.;.;.;.;.;.;.;.;.;.;.;.;."
};
