/* XPM */
static char *_caf5702e6c4403d92897965fe292715[] = {
/* columns rows colors chars-per-pixel */
"64 64 91 1 ",
"  c #13015F",
". c #160261",
"X c #1A0565",
"o c #1D0768",
"O c #1F0869",
"+ c #230A6D",
"@ c #260D70",
"# c #290E73",
"$ c #2D1176",
"% c #2F1278",
"& c #33157C",
"* c #351A7B",
"= c #391A7F",
"- c #371780",
"; c #381780",
": c #3B1A83",
"> c #401D87",
", c #49148B",
"< c #421E89",
"1 c #46218C",
"2 c #48228F",
"3 c #472B88",
"4 c #4C2492",
"5 c #4C2990",
"6 c #512796",
"7 c #522897",
"8 c #552A9A",
"9 c #5A2C9E",
"0 c #543493",
"q c #573995",
"w c #583B96",
"e c #5D3C9B",
"r c #5D2EA1",
"t c #5F31A3",
"y c #602FA4",
"u c #6232A6",
"i c #653BA5",
"p c #6634A9",
"a c #6936AC",
"s c #6C38AE",
"d c #6E39B1",
"f c #733CB4",
"g c #574291",
"h c #5D4099",
"j c #60449A",
"k c #604998",
"l c #6B579E",
"z c #6C5A9F",
"x c #6646A1",
"c c #6947A3",
"v c #6B4BA4",
"b c #6B44A8",
"n c #755EA7",
"m c #784EB2",
"M c #7C56B3",
"N c #7F58B5",
"B c #7A69A8",
"V c #8059B7",
"C c #816EAD",
"Z c #8473AF",
"A c #8362B6",
"S c #8A6CBA",
"D c #8A73B6",
"F c #8E7CB7",
"G c #8D75BA",
"H c #9276BE",
"J c #9887BD",
"K c #9989BE",
"L c #9A83C2",
"P c #AB93CE",
"I c #AE9FCC",
"U c #ACA1C9",
"Y c #B6A4D3",
"T c #B7A9D2",
"R c #BAABD5",
"E c #BFB5D6",
"W c #C5BADB",
"Q c #CABBE0",
"! c #D0C7E1",
"~ c #D2C9E3",
"^ c #DDD4EA",
"/ c #DEDAEA",
"( c #E1DCEC",
") c #EAE6F2",
"_ c #EDEAF5",
"` c #F0EEF6",
"' c #F3EFF8",
"] c #F3F1F7",
"[ c #F4F1F8",
"{ c #FFFFFF",
"} c None",
/* pixels */
"}}}}}}}}}}}}}}}}}}}}}}}}}}}}}}}}}}}}}}}}}}}}}}}}}}}}}}}}}}}}}}}}",
"}}}}}}}}}}}}}}}}}}}}}}}}}}}}}}}}}}}}}}}}}}}}}}}}}}}}}}}}}}}}}}}}",
"}}}}}}}}}}}}}}}}}}}}}}}}}}}}}}}}}}}}}}}}}}}}}}}}}}}}}}}}}}}}}}}}",
"}}}}}}}}}}}}}}}}}}}}}}}}}}}}}}}}}}}}}}}}}}}}}}}}}}}}}}}}}}}}}}}}",
"}}}}}}}}}}}}}}}}}}}}}}}}}}}}}}}}}}}}}}}}}}}}}}}}}}}}}}}}}}}}}}}}",
"}}}}}}}}}}}}}}}}}}}}}}}}}}}}}}}}}}}}}}}}}}}}}}}}}}}}}}}}}}}}}}}}",
"}}}}}}}}}}}}}}}}}}}}}}}}}}}}}}}}}}}}}}}}}}}}}}}}}}}}}}}}}}}}}}}}",
"}}}}}}}}},,}}}}}},,,,,}}}}}mffffffmffff}}}}}}}}}}}}}}}}}}}}}}}}}",
"}}}}}}}}},,,}}}},,,,,,,}}}ffffffffffffffff}}}}}}}}}}}}}}}}}}}}}}",
"}}}}}}}}},,,}}},,,,,,,,,}}}fffffffffffffffff}}}}}}}}}}}}}}}}}}}}",
"}},,}}}}},,}}}},,,,,,,,,,}}fffffffffffffffffff}}}}}}}}}}}}}}}}}}",
"}},,}}}}}}}}}}},,,,,,,,,,}}dfddfffffffffffffffff}}}}}}}}}}}}}}}}",
"}}}}}}}}}}}}}}},,,,,,,,,,}}dddddffdddffffffffffff}}}}}}}}}}}}}}}",
"}}}}}}}}}}}}}}},,,,,,,,,}}}sssssffddddddffdfdfffff}}}}}}}}}}}}}}",
"}}}}}}}}}}},,}},,,,,,,,,}}}aaaasfddddaddffddddfddff}}}}}}}}}}}}}",
"}}}}}}}}}},,,,}},,,,,,,}}}}apaaadaaaadadffdddddddfff}}}}}}}}}}}}",
"}}}},}}}}},,,,}}}},,,}}}}}pppppipppaaaaaaaasssssssssd}}}}}}}}}}}",
"}}}},}}}}},,,,}}}}}}}}}}}uuppuuppppppappaaaaaaaassssss}}}}}}}}}}",
"}}}}}}}}}}},}}}r}}}}}}}}yyuuyuuupuppuppppppppaaaaaaass}}}}}}}}}}",
"}}}}}}}}}}}}}}99r9}}}}tryrryyyuuuyyuuuupupuppppppppapaa}}}}}}}}}",
"}}}}}}}}}}}}}}}r999999r9rrrrtyrrrrrrrtryyyyyuyypppppppp}}}}}}}}}",
"}}}}}},,,,,,}}}}8999999999999imMNMMNMNNNNNVVNVVVmupuuppp}}}}}}}}",
"}}}}},,,,,,,,}}}888888999899S^''''''''''''''''''Pyuuuuuu}}}}}}}}",
"}}}},,,,,,,,,,}}}8888888987A_{{{{{{{{{{{{{{{{{{_myttyyuuu}}}}}}}",
"}}},,,,,,,,,,,,}}777778887t~{{{{{{{{{{{{{{{{{{{Prrtrtrttt}}}}}}}",
"}}},,,,,,,,,4,,}}666676666S{{{{{{{{{{{{{{{{{{{Qi9999r9rtt}}}}}}}",
"}}},,,,,,,,,,,,}}}44466656R{{{{{{{{{{{{{{{{{{Wb799999999rr}}}}}}",
"}}},,,,,,,,,,,,}}444444447LYYYYYYYYYYYYYYYYYHt798898999999}}}}}}",
"}}},,,,,,,,,,,,}}22224244444444664776666777667888888889899}}}}}}",
"}}}},,,,,,,,,,}}}22222222222222242444444466666677887887888}}}}}}",
"}}}},,,,,,,,,,}}}21122222ecxbxxcxbcccccce46466766666676868}}}}}}",
"}}}}},,,,,,,,}}}<<<<<<1<0~`_____________G24444444646666666}}}}}}",
"}}}}}}},,,,}}}}<<<<<<<<<v]{{{{{{{{{{{{{^e22242444664446646}}}}}}",
"}}}}}}}}}}}}}}:::<:<:<<:D{{{{{{{{{{{{{{G<22222242242444444}}}}}}",
"}}}}}}}}}}}}:::::::::<>>U{{{{{{{{{{{{{T5<2<222222222242244}}}}}}",
"}}}}}}}--:-;:::;:::::::1!{{{{{`))___)T0<1<<1<2<<1222222222}}}}}}",
"}}}}}}}-=&-==&--:-;;;:;w){{{{{Dqheheq2:<<<<1<<<2<<21<22212}}}}}}",
"}}}}}}}}%=&&=&=&==-;-=&n{{{{{`h::::::::>:<<:<:<<:<<<<<<112}}}}}}",
"}}}}}}}}%&&&&&&&&&=&=&&J{{{{{!1;=::::::::::<:<<:<1<1<<<<<}}}}}}}",
"}}}}}}}}%%%%&%&&&&&&&&:E{{{{{J=-==;::::::::::::::::::<:<<}}}}}}}",
"}}}}}}}}%$%%%%&%%%&%&%3/{{{{(0=&&-=&---;;;:::::::::::<:::}}}}}}}",
"}}}}}}}}}$$$$$%$%%%%%%k'{{{[C&%=&&&&=-&;;;-=;;;::::::::::}}}}}}}",
"}}}}}}}}}#####$$%%$%%#Z{{{`J*&%&&&&&&&&&&&=&;--&-;--::-:}}}}}}}}",
"}}}}}}}}}}##########$$U{`El%$$$%%%&&%&&&&&&&&&&=&=&==-=:}}}}}}}}",
"}}}}}}}}}}@@#@@######$zBg*#$$$$$%$%%%%%%%&%&&&&&&&&&=&=}}}}}}}}}",
"}}}}}}}}}}}++@+@+@@##@@@@#####$$$#$$%%$%%%%%%%&%&&&&&&%}}}}}}}}}",
"}}}}}}}}}}}++++++@@@@@@@@##########$#$$%%%%%%%%%%%%%&&}}}}}}}}}}",
"}}}}}}}}}}}}++++++++++++#++@+###@##########$$$$$%%%%%}}}}}}}}}}}",
"}}}}}}}}}}}}}OO++O++++++++++++++@@@@@###########$$$$}}}}}}}}}}}}",
"}}}}}}}}}}}}}}oooooooOO+++++++++++@+++@@@@@@####@##$}}}}}}}}}}}}",
"}}}}}}}}}}}}}}}oXoooooOOOoo++++++++++@++@+@@@@####@}}}}}}}}}}}}}",
"}}}}}}}}}}}}}}}}XXXXXooXoooooooOO+O+++++++++@++++}}}}}}}}}}}}}}}",
"}}}}}}}}}}}}}}}}}X.XXXXXXooXooooooOOOOOO++++++++}}}}}}}}}}}}}}}}",
"}}}}}}}}}}}}}}}}}}}X.X.XX.XXXXXoXoXoOOOOOOOOO++}}}}}}}}}}}}}}}}}",
"}}}}}}}}}}}}}}}}}}}}.......X.XXXXXXXXXoXoOooO}}}}}}}}}}}}}}}}}}}",
"}}}}}}}}}}}}}}}}}}}}}} ...........XX.XXXXXX}}}}}}}}}}}}}}}}}}}}}",
"}}}}}}}}}}}}}}}}}}}}}}}}}  .. .......X.XX}}}}}}}}}}}}}}}}}}}}}}}",
"}}}}}}}}}}}}}}}}}}}}}}}}}}}}}   ....}}}}}}}}}}}}}}}}}}}}}}}}}}}}",
"}}}}}}}}}}}}}}}}}}}}}}}}}}}}}}}}}}}}}}}}}}}}}}}}}}}}}}}}}}}}}}}}",
"}}}}}}}}}}}}}}}}}}}}}}}}}}}}}}}}}}}}}}}}}}}}}}}}}}}}}}}}}}}}}}}}",
"}}}}}}}}}}}}}}}}}}}}}}}}}}}}}}}}}}}}}}}}}}}}}}}}}}}}}}}}}}}}}}}}",
"}}}}}}}}}}}}}}}}}}}}}}}}}}}}}}}}}}}}}}}}}}}}}}}}}}}}}}}}}}}}}}}}",
"}}}}}}}}}}}}}}}}}}}}}}}}}}}}}}}}}}}}}}}}}}}}}}}}}}}}}}}}}}}}}}}}",
"}}}}}}}}}}}}}}}}}}}}}}}}}}}}}}}}}}}}}}}}}}}}}}}}}}}}}}}}}}}}}}}}"
};
