/* XPM */
static char *ae954d836e3f4d89bf154c690456c8bc[] = {
/* columns rows colors chars-per-pixel */
"32 32 72 1 ",
"  c #14015F",
". c #160261",
"X c #1A0565",
"o c #1D0768",
"O c #1F0869",
"+ c #230A6D",
"@ c #270D70",
"# c #290E73",
"$ c #2D1176",
"% c #2F1278",
"& c #33157C",
"* c #34187C",
"= c #371680",
"- c #381780",
"; c #3B1A83",
": c #401C87",
"> c #49148B",
", c #431E89",
"< c #422387",
"1 c #432B84",
"2 c #46208D",
"3 c #49228F",
"4 c #49288C",
"5 c #523C8D",
"6 c #4C2492",
"7 c #4F2C92",
"8 c #512796",
"9 c #522A96",
"0 c #522798",
"q c #552B9A",
"w c #5A2C9E",
"e c #553297",
"r c #563894",
"t c #5A3D97",
"y c #5D2EA1",
"u c #5F31A2",
"i c #602FA4",
"p c #6231A6",
"a c #6339A4",
"s c #6534A9",
"d c #6936AC",
"f c #6D39AE",
"g c #6E39B1",
"h c #733CB4",
"j c #6340A0",
"k c #6A42A7",
"l c #6F53A6",
"z c #735BA7",
"x c #7558AA",
"c c #774FB1",
"v c #7A51B3",
"b c #7863A9",
"n c #7E6AAC",
"m c #8878B2",
"M c #9E8FC0",
"N c #A692C9",
"B c #AA96CB",
"V c #AE9ACF",
"C c #B49FD3",
"Z c #B4A3D2",
"A c #B6A8D1",
"S c #BCB3D3",
"D c #CBBDE0",
"F c #D3C9E4",
"G c #D9D2E7",
"H c #E4DDF0",
"J c #E3E0ED",
"K c #EAE6F2",
"L c #EDEAF4",
"P c #F0ECF6",
"I c #FFFFFF",
"U c None",
/* pixels */
"UUUUUUUUUUUUUUUUUUUUUUUUUUUUUUUU",
"UUUUUUUUUUUUUUUUUUUUUUUUUUUUUUUU",
"UUUUUUUUUUUUUUUUUUUUUUUUUUUUUUUU",
"UUUUUUUUU>>UUUUhhcUUUUUUUUUUUUUU",
"UUUU>>UU>>>>UhhhhhhhhhUUUUUUUUUU",
"U>UUUUU>>>>>UUhhhhhhhhhUUUUUUUUU",
"UUUUUUU>>>>>UUfghggghhhhhUUUUUUU",
"UUUUU>>U>>>>UdddffgfhgggghUUUUUU",
"UUUUU>>UUUUUUssssddddddgfggUUUUU",
"UUUUUUUyUUUUyiiiiiippssssddUUUUU",
"UUUU>UUUwwwwyyaccvcvvvvvfsssUUUU",
"UU>>>>>UqqqqqkDPPPPPPPPHvpuaUUUU",
"UU>>>>>UU8800VIIIIIIIIICuyyyuUUU",
"U>>>>>>UU668eZFFFFFFFFBaqwwwyUUU",
"UU>>>>>UU6363897990qee80qqqqqUUU",
"UU>>>>>U,,2,xBBBBBBNa38688880UUU",
"UUUUUUU;:,:,AIIIIIIFe36666686UUU",
"UUUUU=;;;;;4FIILKKGl,,,333633UUU",
"UUUU**&*==*tLILzrt7;,,,,,,,,2UUU",
"UUUU&&&&**&bIIF<--;;;;;:;,,,,UUU",
"UUUU$$$&%%%MIIn&***====;;;;;UUUU",
"UUUUU#$#$$*SJm&%&&&&**=&----UUUU",
"UUUUU#@@@@$51$$$$$&%&%&&**&UUUUU",
"UUUUUU++++@++@@#####$$$$$&&UUUUU",
"UUUUUUU++O++++++@+@@@####$UUUUUU",
"UUUUUUUUXXXOXoO++++++@+@@UUUUUUU",
"UUUUUUUUUX.XXXoOXOO++O++UUUUUUUU",
"UUUUUUUUUUU......XXXXoUUUUUUUUUU",
"UUUUUUUUUUUUU .....UUUUUUUUUUUUU",
"UUUUUUUUUUUUUUUUUUUUUUUUUUUUUUUU",
"UUUUUUUUUUUUUUUUUUUUUUUUUUUUUUUU",
"UUUUUUUUUUUUUUUUUUUUUUUUUUUUUUUU"
};
